<svg version="1.1" id="Layer_1" xmlns="http://www.w3.org/2000/svg" xmlns:xlink="http://www.w3.org/1999/xlink" x="0px" y="0px"
	 width="100%" viewBox="0 0 1024 960" enable-background="new 0 0 1024 960" xml:space="preserve">
<path fill="#50C878" opacity="1.000000" stroke="none" 
	d="
M442.468658,961.000000 
	C447.224640,956.686279 452.990204,953.009583 457.197052,947.230835 
	C460.790955,950.646484 460.475952,955.315002 463.711914,959.939636 
	C463.711914,956.193115 463.825714,953.816772 463.694550,951.454163 
	C462.113617,922.980042 462.301392,894.452209 463.154053,866.004578 
	C463.801086,844.417236 463.522125,822.788025 465.013855,801.227112 
	C466.435822,780.673645 468.474731,760.152039 469.403137,739.578491 
	C470.231567,721.219421 464.023438,705.099854 451.799713,691.118103 
	C441.175842,678.966309 427.061707,672.819397 412.814850,666.657837 
	C379.577362,652.283142 345.783966,639.761963 309.841248,633.745239 
	C286.569489,629.849609 263.263458,628.923584 239.776703,630.702881 
	C232.801834,631.231262 225.821304,631.564636 218.924667,632.820068 
	C215.912857,633.368408 214.907883,631.995483 215.499237,629.148071 
	C216.733917,623.202942 220.283722,618.919434 225.409744,615.990479 
	C233.123093,611.583008 241.649353,610.342957 250.386932,609.905090 
	C279.090973,608.467041 307.030884,613.971863 335.028809,619.033020 
	C351.557983,622.021057 367.995361,625.570862 384.699615,627.502991 
	C388.154327,627.902527 391.695709,627.825073 395.179047,627.635315 
	C399.550262,627.397217 400.829529,624.854797 398.295410,621.315002 
	C395.151062,616.922852 390.733276,613.850281 386.385071,610.748169 
	C357.735962,590.309570 327.498871,572.359924 297.428436,554.161926 
	C262.089691,532.775635 226.605728,511.629333 191.186447,490.376068 
	C184.758881,486.519196 178.309296,482.697418 171.937363,478.750458 
	C170.299973,477.736206 168.315796,476.973541 167.325897,474.316315 
	C172.240585,470.597626 177.969910,470.431946 183.657608,471.109222 
	C201.380859,473.219452 216.772751,481.833923 232.592148,489.173279 
	C239.653107,492.449158 246.529083,496.123810 253.658447,499.702515 
	C255.141418,497.320862 254.548859,495.413605 254.147522,493.521210 
	C249.105438,469.747375 243.323853,446.148010 237.502457,422.556152 
	C233.275818,405.427216 229.242157,388.250641 225.156555,371.087158 
	C224.787476,369.536713 224.075897,367.906433 225.438126,366.098297 
	C228.306961,366.846863 229.399323,369.399475 230.782990,371.550232 
	C249.740082,401.017029 261.890137,433.313995 270.432495,467.105194 
	C273.207214,478.081055 276.039948,489.042938 278.705597,500.045258 
	C279.423615,503.008728 281.233093,504.926941 283.379578,506.871185 
	C301.716858,523.480591 322.891052,535.661316 344.944183,546.476624 
	C349.538269,548.729675 353.762024,551.776672 360.064087,553.637390 
	C357.071625,521.422180 351.985992,490.181824 347.731049,458.777405 
	C350.851654,458.499146 351.675201,460.389984 352.803253,461.711517 
	C364.741760,475.698242 371.413177,492.406097 376.936768,509.583344 
	C383.050964,528.597229 387.500610,548.062012 391.241882,567.677979 
	C391.657684,569.858276 392.577606,571.197144 394.625366,572.153137 
	C418.465149,583.282654 442.268677,594.489441 467.183807,603.096802 
	C468.769073,603.644531 470.354126,604.082458 472.486053,603.781738 
	C474.799255,597.699585 472.417847,591.432617 472.438080,585.263794 
	C472.460876,578.317139 471.096375,571.376831 470.876373,564.416626 
	C469.893036,533.307678 463.974915,503.001923 456.443695,472.934723 
	C450.294922,448.386536 444.478851,423.744995 434.801514,400.246765 
	C430.516724,389.842590 424.900513,380.885284 415.807983,373.402191 
	C391.076996,353.048859 369.651001,329.144867 346.992828,306.569550 
	C339.796783,299.399841 332.231812,292.579834 325.811615,284.659607 
	C324.802765,283.415039 323.206085,282.455963 323.654297,279.895447 
	C330.595856,280.380920 336.535095,283.470947 342.358856,286.866394 
	C354.011017,293.660034 363.005859,303.643524 372.896362,312.527618 
	C394.812958,332.214142 419.320953,347.646851 446.718872,358.503448 
	C449.398773,359.565369 451.663940,359.447174 454.313354,358.191589 
	C466.265594,352.527466 476.047394,344.010925 485.332886,334.872772 
	C505.646637,314.881287 524.134949,293.160797 543.990723,272.728455 
	C559.597900,256.668060 576.232544,241.863739 594.838013,229.347656 
	C596.311707,228.356293 597.703674,227.029404 600.403992,227.246765 
	C598.537903,233.340378 595.007385,238.379532 591.773499,243.384689 
	C578.032837,264.651703 563.950073,285.690918 547.794312,305.256592 
	C524.856506,333.035797 500.515289,359.503632 474.198486,384.117279 
	C471.866974,386.297943 471.188049,388.376099 471.197052,391.466827 
	C471.252136,410.336548 473.996338,428.760712 481.833923,445.958496 
	C487.149719,457.622803 492.864716,469.095154 497.347626,481.124054 
	C503.628876,497.978516 509.481201,514.975830 514.472290,532.263000 
	C514.925659,533.833435 515.187805,535.542664 516.615356,536.744629 
	C518.686829,536.522827 518.965820,534.626892 519.714478,533.269714 
	C528.279480,517.743408 538.153931,503.287842 550.776123,490.602112 
	C562.376709,478.943054 569.722534,464.077240 578.269653,450.192474 
	C594.605286,423.655304 609.205872,396.118256 624.553284,369.011200 
	C626.115234,366.252411 626.487244,363.681885 625.886963,360.497589 
	C623.328369,346.923828 622.300293,333.095306 619.231262,319.595886 
	C618.980774,318.494110 618.681702,317.296051 620.173767,315.315857 
	C631.414673,325.817780 634.937500,340.462677 641.520020,353.191040 
	C644.344849,353.498779 646.076599,351.739746 647.946594,350.489899 
	C658.134399,343.680695 666.466980,334.778259 675.133179,326.250641 
	C684.156433,317.371643 693.002991,308.300293 703.352234,300.883057 
	C708.006531,297.547333 713.029724,295.011169 718.444458,293.236420 
	C719.927124,292.750397 721.450562,291.602509 723.095947,292.890411 
	C723.556396,294.625061 722.206787,295.335938 721.254700,296.147675 
	C703.419006,311.354370 688.887024,329.687317 673.207886,346.930389 
	C664.793762,356.183777 656.151245,365.208923 646.891113,373.609375 
	C642.626709,377.477905 639.366760,381.832733 636.868774,387.070160 
	C618.798157,424.957794 600.078430,462.524231 579.068115,498.887207 
	C569.068481,516.193848 558.417786,533.123169 548.314148,550.371094 
	C540.792725,563.210999 536.092041,577.018188 536.429871,592.106201 
	C536.705688,604.425110 541.312073,615.026550 549.684875,624.137085 
	C552.669434,627.384644 554.998840,625.616272 557.518616,624.071655 
	C573.034668,614.560608 587.671936,603.791138 601.453979,591.953247 
	C636.552063,561.806152 665.958984,527.013489 686.959900,485.505798 
	C692.838928,473.886108 697.206726,461.653900 701.799866,449.497955 
	C714.202148,416.674957 731.240723,386.474121 753.553833,359.321716 
	C757.267700,354.802368 761.469482,350.756653 765.888123,346.939575 
	C767.093689,345.898102 768.119751,344.349487 770.377563,344.831909 
	C771.611511,347.197662 769.891541,349.215820 769.182251,351.220032 
	C757.561584,384.057678 743.516602,415.905945 729.769897,447.882080 
	C719.181030,472.512634 708.998962,497.318237 698.671753,522.060913 
	C697.979797,523.718445 697.048706,525.387756 697.547729,527.471741 
	C699.746094,528.808044 701.656921,527.370056 703.502808,526.546692 
	C730.022705,514.716980 757.849121,507.427612 786.501465,503.460266 
	C809.559082,500.267517 832.693176,497.455505 856.063843,497.612396 
	C862.044434,497.652588 868.027527,497.076630 874.012451,496.870300 
	C875.633911,496.814453 877.627136,496.566681 878.363647,498.492218 
	C879.052612,500.293488 877.616699,501.601654 876.555420,502.871918 
	C872.962585,507.172028 867.975281,509.039093 862.851868,510.635712 
	C853.392212,513.583618 843.551880,514.135437 833.795471,515.241821 
	C803.072449,518.725952 772.992920,524.523682 744.656555,537.751282 
	C718.206116,550.098389 696.205261,568.046631 676.690063,589.382629 
	C672.646240,593.803772 668.710876,598.325256 664.778198,602.846252 
	C663.365540,604.470276 661.991516,606.168884 661.793518,608.424683 
	C662.733948,610.246338 664.395447,609.706970 665.805176,609.729675 
	C688.457397,610.095215 711.136536,609.867798 733.755371,610.928955 
	C757.000549,612.019531 780.276062,613.796692 802.436829,622.033691 
	C808.421997,624.258362 814.092346,627.002686 818.823608,631.382812 
	C820.747314,633.163879 822.845581,634.911255 822.634644,638.629700 
	C815.989563,638.031250 809.446411,637.605408 802.945374,636.827454 
	C777.647644,633.800293 752.301941,632.231445 726.794556,632.789917 
	C708.295288,633.195068 689.848083,634.039856 671.640076,637.304749 
	C651.812378,640.860107 631.931641,644.617737 613.593689,653.452515 
	C582.100647,668.624878 563.561890,694.257019 554.400085,727.457458 
	C547.952454,750.822327 546.113098,774.705139 546.772827,798.709717 
	C547.375793,820.648071 550.673767,842.399475 554.631714,863.996826 
	C558.381836,884.460022 562.323364,904.892456 568.258362,924.866150 
	C572.190125,938.098206 577.804565,950.444153 587.902832,960.676270 
	C539.645752,961.000000 491.291534,961.000000 442.468658,961.000000 
M664.709961,591.695374 
	C662.970032,590.383057 661.079651,589.256470 658.887024,589.156372 
	C655.900085,589.020020 653.785400,590.484253 654.661072,593.620667 
	C655.506958,596.650513 657.408875,599.920715 661.072083,599.329956 
	C664.476196,598.781006 666.283325,596.048828 664.709961,591.695374 
z"/>
<path fill="#50C878" opacity="1.000000" stroke="none" 
	d="
M787.136780,379.167572 
	C800.697266,366.616516 816.792236,359.071625 833.075867,351.752136 
	C812.123047,354.289429 794.504456,364.367889 777.143921,378.197388 
	C777.249695,370.406097 778.760437,364.737732 781.251709,359.353210 
	C791.670105,336.836456 810.813599,329.239044 834.315063,332.439789 
	C843.717834,333.720337 852.839050,336.392242 861.737671,339.780670 
	C864.232544,340.730682 866.046875,341.719635 864.852600,344.766937 
	C856.524109,366.017914 845.528137,385.044617 821.537537,391.499390 
	C809.122009,394.839874 796.781006,393.450348 785.341797,386.960083 
	C784.324524,386.382935 783.324829,385.758545 783.014648,384.371216 
	C783.515076,382.186951 785.501648,381.032623 787.136780,379.167572 
z"/>
<path fill="#50C878" opacity="1.000000" stroke="none" 
	d="
M247.745819,537.982239 
	C252.625046,540.099426 257.361450,541.685486 261.897217,546.142700 
	C242.171509,551.210815 223.144241,556.020020 208.320038,569.985291 
	C226.051163,561.848267 244.010849,554.584106 264.386261,552.479553 
	C262.441956,566.074402 256.208588,576.105103 246.343353,583.896118 
	C232.219482,595.050476 216.153671,595.890808 199.343292,592.143677 
	C194.782394,591.127014 190.334793,589.764832 186.005737,587.997803 
	C183.671982,587.045227 182.537155,585.774292 183.563705,583.024048 
	C188.381180,570.117432 194.371750,557.872192 204.169281,547.959778 
	C216.381042,535.604797 230.982025,532.715942 247.745819,537.982239 
z"/>
<path fill="#50C878" opacity="1.000000" stroke="none" 
	d="
M648.879211,250.300034 
	C639.013428,251.337936 629.890808,250.669495 621.283020,246.096802 
	C616.656616,243.639130 616.304199,243.053650 620.007324,239.448685 
	C628.832520,230.857361 639.444214,224.929001 650.392151,219.570404 
	C655.715027,216.965073 661.160828,214.610825 667.289612,211.804749 
	C656.492432,212.358139 647.393066,215.770264 638.519409,220.013138 
	C629.661560,224.248459 622.010864,230.382462 613.666382,236.280655 
	C611.962524,232.207291 613.444519,228.843521 614.359436,225.719818 
	C620.997498,203.057007 637.442810,193.864822 659.018372,194.315903 
	C668.011658,194.503922 676.889404,196.245911 685.456116,199.170868 
	C693.011230,201.750427 695.171570,206.743805 691.728210,213.804016 
	C684.956848,227.687836 676.356995,239.934586 661.753235,246.702942 
	C657.788452,248.540482 653.557129,249.414078 648.879211,250.300034 
z"/>
<path fill="#50C878" opacity="1.000000" stroke="none" 
	d="
M854.021729,581.118652 
	C856.571167,588.692505 856.653687,588.968689 849.433044,591.125366 
	C833.452881,595.898438 817.406067,599.033813 801.430725,590.888977 
	C788.462341,584.277222 779.636108,574.212036 775.480286,560.180542 
	C775.245544,559.388062 775.037720,558.572571 774.960876,557.754272 
	C774.917725,557.295288 775.169373,556.808716 775.279114,556.370789 
	C785.353455,553.765198 814.141235,562.726379 832.531799,573.914246 
	C828.058411,568.941711 822.771851,565.006653 816.877136,561.816772 
	C810.857849,558.559387 804.595642,555.810486 798.099854,553.746338 
	C791.656372,551.698853 785.028564,550.231323 778.564453,548.531189 
	C778.020508,546.840942 779.214966,546.205200 780.116028,545.620544 
	C796.406372,535.051331 816.810669,533.241699 832.909729,548.372681 
	C842.575806,557.457581 849.146973,568.502502 854.021729,581.118652 
z"/>
<path fill="#50C878" opacity="1.000000" stroke="none" 
	d="
M367.625549,267.174622 
	C362.107666,251.515305 361.417816,235.598267 360.950806,220.093903 
	C358.314362,226.165131 357.054993,238.935318 358.404175,249.103806 
	C359.711914,258.960083 362.110382,268.596680 364.987091,277.884766 
	C363.210510,279.483734 362.068756,278.427460 360.996765,277.808380 
	C344.848022,268.482330 331.967468,250.032715 340.150818,226.031372 
	C344.252350,214.001785 351.093872,203.670334 359.374695,194.173401 
	C361.233917,192.041107 362.941650,192.151031 364.891907,193.939651 
	C376.087311,204.207336 385.816101,215.621872 389.894318,230.578369 
	C393.768555,244.786865 389.024780,257.548584 381.202789,269.264282 
	C379.092316,272.425323 377.160980,277.695679 373.041260,277.061493 
	C369.332092,276.490509 369.357727,270.919586 367.625549,267.174622 
z"/>
<path fill="#50C878" opacity="1.000000" stroke="none" 
	d="
M456.764984,311.414673 
	C435.292236,298.584900 427.360687,278.976868 433.679230,254.975769 
	C435.036011,249.822037 436.784424,244.797607 439.024841,239.963699 
	C439.863708,238.153870 440.824921,236.173355 443.512604,237.494858 
	C456.725800,243.991699 469.561646,250.969818 478.169220,263.598450 
	C487.699097,277.580261 486.044830,298.663086 474.386963,310.804993 
	C474.078186,311.126617 473.537445,311.225525 472.229034,311.838867 
	C470.037598,292.634003 465.550751,274.484985 452.911072,259.478088 
	C456.925354,269.231293 460.959045,278.953552 463.487518,289.248596 
	C465.007050,295.435516 465.670746,301.691467 466.088959,307.979034 
	C466.522705,314.499756 465.470490,315.104645 459.366119,312.628632 
	C458.596527,312.316467 457.855865,311.933105 456.764984,311.414673 
z"/>
<path fill="#50C878" opacity="1.000000" stroke="none" 
	d="
M119.976082,628.244019 
	C113.274597,629.708313 106.932381,627.978577 100.640312,628.739319 
	C98.045929,629.053040 97.528412,627.183533 97.745247,625.181580 
	C99.430908,609.619324 102.431877,594.544556 113.972290,582.742615 
	C123.328247,573.174683 142.652328,570.625549 153.145630,578.136353 
	C145.891708,582.533386 138.286316,585.828491 131.874130,591.008606 
	C125.511787,596.148438 119.491722,601.563965 115.396065,608.904663 
	C127.912949,598.591919 140.663132,588.690918 156.093124,582.793152 
	C162.336472,601.786865 144.979141,623.310669 119.976082,628.244019 
z"/>
<path fill="#50C878" opacity="1.000000" stroke="none" 
	d="
M272.071350,408.102417 
	C267.696075,409.047150 266.712677,407.481018 267.390808,403.585510 
	C269.508789,391.418884 274.670593,380.445526 280.135681,369.556427 
	C280.845795,368.141510 282.212067,366.979126 282.069153,364.445831 
	C271.019104,376.290375 265.788300,390.420502 261.820190,405.439880 
	C252.955627,396.953888 251.614441,379.712921 258.371368,368.315765 
	C262.751404,360.927795 268.943542,355.412811 276.410156,351.463318 
	C281.840820,348.590790 287.626465,346.381592 293.288177,343.956818 
	C296.000549,342.795166 298.052795,343.256073 299.123901,346.437012 
	C307.920746,372.561035 301.592773,397.898895 272.071350,408.102417 
z"/>
<path fill="#50C878" opacity="1.000000" stroke="none" 
	d="
M420.687744,442.596039 
	C429.182678,441.125977 430.138336,441.930267 430.244781,450.072083 
	C430.379547,460.380280 428.966095,470.317902 423.436523,479.305145 
	C415.886444,491.576355 404.371460,496.868378 390.505249,497.933167 
	C386.714264,498.224335 385.745575,496.462341 387.244354,493.007355 
	C392.144348,481.711761 399.594055,472.153290 407.574982,462.951660 
	C408.954895,461.360657 410.433899,459.855621 411.618469,458.057373 
	C404.861115,462.040009 399.158447,467.177551 394.174530,473.199951 
	C389.222198,479.184174 385.213409,485.780823 381.195679,494.077148 
	C377.299164,484.133301 376.462891,475.748108 380.213593,467.199921 
	C386.464722,452.953033 398.494965,446.723480 412.856689,443.790863 
	C415.298431,443.292297 417.786804,443.022247 420.687744,442.596039 
z"/>
<path fill="#50C878" opacity="1.000000" stroke="none" 
	d="
M750.224426,257.379974 
	C738.340576,262.224365 729.514954,270.743164 720.748352,279.241730 
	C718.571472,277.044250 719.071472,274.999756 719.310242,273.068542 
	C721.484802,255.477661 732.891235,244.297089 750.436890,241.756073 
	C758.687012,240.561279 766.639282,241.913895 774.683105,242.963684 
	C777.912781,243.385178 778.802063,245.469681 778.075623,248.375473 
	C775.674377,257.980255 772.309998,267.162170 765.832153,274.876312 
	C757.186157,285.172455 740.044556,290.117889 727.159180,286.147675 
	C723.095337,284.895508 723.746643,282.936188 726.032471,280.410461 
	C733.568542,272.083771 742.153809,265.024445 751.591492,258.973114 
	C752.969360,258.089661 754.342712,257.199219 755.448120,255.654068 
	C753.819336,256.184723 752.190491,256.715363 750.224426,257.379974 
z"/>
<path fill="#50C878" opacity="1.000000" stroke="none" 
	d="
M202.493546,654.515625 
	C192.759018,660.472107 183.994308,666.979858 177.911469,676.560181 
	C185.119751,670.647034 192.742050,665.333313 200.621017,660.401855 
	C203.854584,658.377930 207.270020,656.637817 210.645691,654.849731 
	C213.557220,653.307556 214.904144,654.241394 215.065948,657.561279 
	C215.726303,671.111633 205.506271,687.092285 192.667877,692.043213 
	C184.022568,695.377075 175.025528,696.814392 165.737579,696.048462 
	C161.930099,695.734436 159.764801,694.600769 160.543488,689.845459 
	C162.194107,679.765320 164.139908,669.854553 169.731445,661.097656 
	C178.146484,647.918701 193.265320,642.648682 208.009628,647.626221 
	C208.794968,647.891357 209.630554,648.046997 210.225830,649.463135 
	C208.554932,651.996155 205.228516,652.557739 202.493546,654.515625 
z"/>
<path fill="#50C878" opacity="1.000000" stroke="none" 
	d="
M823.705811,664.991211 
	C823.008545,661.152466 822.168823,657.722778 824.617310,653.672363 
	C838.632141,660.003174 850.880127,668.742554 861.725952,679.267700 
	C860.536743,675.141724 855.294495,669.004578 847.326538,662.318970 
	C841.392273,657.339722 834.670288,653.506531 827.615723,649.549622 
	C836.755554,643.570129 851.357239,644.843811 859.978943,652.186646 
	C872.381836,662.749695 876.451111,677.098267 877.650940,692.627014 
	C877.813477,694.731018 876.490723,695.684448 874.651672,695.892578 
	C854.686035,698.152283 830.449463,691.844421 823.705811,664.991211 
z"/>
<path fill="#50C878" opacity="1.000000" stroke="none" 
	d="
M203.372528,519.073303 
	C206.250931,520.887207 204.698624,522.779724 203.957581,524.494751 
	C196.327240,542.154419 179.089386,550.424866 159.477127,545.891663 
	C154.428207,544.724670 149.585617,542.965271 144.894226,540.784302 
	C142.266296,539.562622 140.996277,537.932983 142.626801,534.883545 
	C147.281937,526.177429 152.409256,517.915405 159.983627,511.298798 
	C172.211700,500.616821 189.876160,500.455017 201.938187,511.233948 
	C202.551926,511.782410 203.225983,512.330566 202.852234,513.940552 
	C189.288071,516.492798 175.059845,518.182556 163.377197,527.211426 
	C171.443451,524.856262 179.521988,522.624023 187.695099,520.760559 
	C192.716370,519.615662 197.720108,518.204712 203.372528,519.073303 
z"/>
<path fill="#50C878" opacity="1.000000" stroke="none" 
	d="
M878.755005,392.020935 
	C884.954895,394.650879 890.351440,397.884033 895.516846,401.568756 
	C901.188232,405.614319 901.422852,405.826996 897.199219,411.064850 
	C889.287048,420.877014 879.974854,428.832916 866.929199,430.500549 
	C856.028992,431.893890 846.227844,428.692657 837.681458,421.791168 
	C834.218872,418.994934 836.325623,417.217651 839.063782,415.980103 
	C848.372925,411.772675 858.278992,409.607086 868.264587,407.779755 
	C871.186584,407.245026 874.145081,406.909973 877.038879,406.144623 
	C862.180725,403.706543 848.098633,407.013336 834.248352,412.865387 
	C834.613708,395.807556 857.778931,385.163757 878.755005,392.020935 
z"/>
<path fill="#50C878" opacity="1.000000" stroke="none" 
	d="
M170.236420,455.638489 
	C170.052567,457.298828 170.454895,458.813629 168.296127,459.496490 
	C158.814072,449.704559 148.473053,440.707794 134.487122,436.965546 
	C135.929276,438.052368 137.373825,439.136047 138.812958,440.226837 
	C140.404709,441.433380 141.948532,442.708374 143.587952,443.845886 
	C150.872330,448.900146 157.531586,454.648285 163.358658,461.349579 
	C166.272476,464.700623 165.960800,465.785919 161.631104,466.939117 
	C145.722351,471.176270 128.292480,463.942474 119.946266,449.615997 
	C116.143204,443.087982 113.767311,436.000824 111.820129,428.743500 
	C111.218109,426.499695 111.433403,424.631287 114.034401,424.115417 
	C125.899117,421.762299 137.795090,420.532379 149.410172,425.166199 
	C162.917999,430.555084 169.528290,440.889343 170.236420,455.638489 
z"/>
<path fill="#50C878" opacity="1.000000" stroke="none" 
	d="
M934.847046,631.225769 
	C929.217102,631.285950 924.087830,631.232788 918.981812,630.220947 
	C899.522095,626.364929 885.762085,610.201782 886.775391,592.233521 
	C886.811768,591.587524 886.975769,590.948669 887.300476,588.953918 
	C902.229675,594.563904 913.803711,604.451111 926.671570,614.509644 
	C917.767212,600.332886 904.775085,592.687744 890.662415,584.512207 
	C899.049622,580.610474 906.289551,580.293884 913.803650,582.379822 
	C926.825073,585.994629 932.951599,596.001404 937.061157,607.705139 
	C938.985474,613.185303 939.954102,618.948303 940.830627,624.705444 
	C941.672302,630.233704 941.193665,630.877319 934.847046,631.225769 
z"/>
<path fill="#50C878" opacity="1.000000" stroke="none" 
	d="
M883.332031,544.709717 
	C873.568237,540.539856 863.588867,538.561523 852.941589,537.375854 
	C860.909424,526.675476 877.102844,523.537476 889.372253,529.798218 
	C901.734985,536.106628 908.641846,547.252808 914.551331,559.177124 
	C915.571106,561.234863 914.321228,562.324402 912.747864,563.132324 
	C890.802490,574.400330 867.596619,573.894287 853.467651,549.755005 
	C852.348450,547.842957 850.133057,545.696350 851.679993,543.477478 
	C853.079163,541.470520 855.967163,541.869568 858.226318,542.117859 
	C869.708862,543.379517 880.598328,546.991272 891.426758,550.799988 
	C892.494995,551.175720 893.550476,551.587524 894.749939,551.715881 
	C891.615295,548.514343 887.796875,546.452332 883.332031,544.709717 
z"/>
<path fill="#50C878" opacity="1.000000" stroke="none" 
	d="
M182.899521,447.025208 
	C179.067078,441.309448 176.403458,435.402100 173.871719,429.421753 
	C172.715012,426.689423 173.465042,425.092346 176.321259,424.147980 
	C187.352921,420.500580 198.453568,418.267151 210.125610,420.897552 
	C224.166336,424.061707 236.365128,439.870850 234.546082,454.051971 
	C222.661163,444.728912 210.719086,436.272278 195.836792,433.555664 
	C208.059082,441.377106 221.663177,447.298584 231.112839,459.033844 
	C220.922958,466.690338 194.743332,465.929108 182.899521,447.025208 
z"/>
<path fill="#50C878" opacity="1.000000" stroke="none" 
	d="
M643.746704,489.325012 
	C648.146851,495.943451 652.806335,502.024628 654.817627,509.752991 
	C650.583557,512.014221 646.478271,511.487274 642.492615,510.308960 
	C626.793335,505.667572 617.694885,494.904144 613.963013,479.211121 
	C612.519653,473.141479 612.601929,466.994476 612.715454,460.836731 
	C612.754395,458.721863 613.009583,456.727936 616.013184,457.090302 
	C625.615662,458.248596 635.120483,459.794830 643.992737,463.921753 
	C658.373962,470.611115 665.773499,485.664215 662.299316,501.148346 
	C661.907837,502.893036 661.810730,504.829834 659.242493,505.918945 
	C651.823547,493.090912 644.101196,480.348358 630.352417,473.023987 
	C634.823364,478.304321 639.395996,483.489807 643.746704,489.325012 
z"/>
<path fill="#50C878" opacity="1.000000" stroke="none" 
	d="
M293.772003,265.078644 
	C297.867218,267.280731 301.749451,269.147461 305.279205,273.186737 
	C295.890350,279.431152 286.378632,283.078705 275.528992,280.798401 
	C260.068298,277.548981 250.874680,266.621704 243.620819,253.560333 
	C242.412933,251.385422 243.385971,250.113571 245.142105,249.068878 
	C256.844910,242.107208 269.229889,237.720261 283.082245,239.937469 
	C294.990479,241.843521 307.662140,256.126251 306.906036,267.515808 
	C294.447083,260.652191 282.072540,254.323792 267.596741,254.906860 
	C276.249542,258.152985 285.155731,260.747681 293.772003,265.078644 
z"/>
<path fill="#50C878" opacity="1.000000" stroke="none" 
	d="
M788.008667,301.013489 
	C781.013123,309.292419 775.821899,318.282990 771.933960,328.375732 
	C765.056702,320.894653 765.248840,305.372437 771.219299,296.357086 
	C778.235474,285.762726 788.718201,280.884949 800.411438,277.787750 
	C801.535095,277.490143 802.687195,277.301331 803.819641,277.034790 
	C812.654358,274.955444 813.296387,275.229065 813.962646,284.155762 
	C814.843994,295.964661 814.047424,307.499847 806.525391,317.504089 
	C800.087585,326.066437 791.601074,331.099091 780.973328,332.368866 
	C776.328857,332.923767 775.384094,331.764038 777.032227,327.365723 
	C781.687256,314.943420 788.625793,303.812805 796.309387,292.795929 
	C795.006714,294.007782 793.675659,295.190857 792.408875,296.439087 
	C790.985840,297.841309 789.620850,299.302368 788.008667,301.013489 
z"/>
<path fill="#50C878" opacity="1.000000" stroke="none" 
	d="
M443.038757,547.020325 
	C446.725220,552.143677 450.293457,556.928772 452.407166,563.304749 
	C447.127045,564.873291 442.278992,564.903748 437.463776,563.646301 
	C420.968048,559.338623 409.413818,544.710449 407.783752,526.248413 
	C407.681183,525.087036 407.683136,523.916077 407.570312,522.755981 
	C406.697632,513.782227 406.691132,513.670776 415.515167,513.557434 
	C425.698242,513.426697 435.391449,515.575867 444.161346,520.911072 
	C455.449707,527.778381 461.519775,541.627808 459.021027,554.455383 
	C458.749359,555.849915 458.659180,557.436707 456.611938,558.799805 
	C449.301361,547.129639 440.889618,536.441223 428.207123,530.029785 
	C433.076721,535.599731 437.946289,541.169739 443.038757,547.020325 
z"/>
<path fill="#50C878" opacity="1.000000" stroke="none" 
	d="
M168.668472,368.485474 
	C190.820557,359.383209 209.061691,372.565308 213.521378,388.935303 
	C199.585663,384.648987 186.252686,379.582123 171.884720,382.078857 
	C185.470947,385.242493 199.582443,386.637115 212.650589,394.889923 
	C204.800049,402.415955 196.332764,406.536530 186.135315,406.676575 
	C168.084656,406.924561 156.942062,395.970581 146.960953,382.289032 
	C153.135345,375.919861 160.542374,372.007996 168.668472,368.485474 
z"/>
<path fill="#50C878" opacity="1.000000" stroke="none" 
	d="
M255.909973,316.231445 
	C258.170074,321.514099 261.462280,326.104889 261.051208,331.829712 
	C251.991684,334.014648 235.324524,325.444031 229.179962,313.813812 
	C223.126282,302.355652 222.704437,290.260590 224.780945,277.839752 
	C225.050461,276.227692 225.701263,274.896606 227.732376,275.359039 
	C243.120163,278.862274 258.747467,282.336975 267.252441,297.606934 
	C272.668121,307.330261 273.600769,317.649933 266.927185,329.024963 
	C260.589294,315.140991 254.186890,302.534851 242.211639,294.034790 
	C246.636459,301.385284 251.858353,308.228394 255.909973,316.231445 
z"/>
<path fill="#50C878" opacity="1.000000" stroke="none" 
	d="
M587.736206,513.497559 
	C594.549194,510.441620 601.190735,509.987579 608.054749,511.675079 
	C617.189514,513.920898 625.649170,517.636475 633.535828,522.765381 
	C636.184692,524.488037 636.862854,526.273071 634.853333,528.850403 
	C629.321960,535.944519 623.536926,542.642151 615.573853,547.337219 
	C600.500671,556.224487 587.262329,551.732361 574.170837,544.325134 
	C570.742981,542.385620 572.212158,540.322693 574.985962,538.914124 
	C583.494263,534.593262 592.493774,531.708923 601.826477,529.814514 
	C605.557007,529.057312 609.289795,528.311035 612.963867,527.226379 
	C598.070862,524.176819 584.619019,529.830566 570.090637,535.308472 
	C572.762512,524.560425 578.830933,518.122681 587.736206,513.497559 
z"/>
<path fill="#50C878" opacity="1.000000" stroke="none" 
	d="
M579.964478,294.905762 
	C589.356750,287.395477 599.692993,282.285156 610.447754,277.849548 
	C603.189880,278.288605 596.617188,280.804321 590.133423,283.747009 
	C583.685974,286.673218 578.406982,291.591278 572.289551,294.730011 
	C570.466492,293.003296 571.113708,291.542206 571.383179,290.098755 
	C574.283997,274.558441 587.475708,263.742188 603.845642,263.931030 
	C612.380920,264.029480 620.614441,266.125305 628.578674,269.215759 
	C631.118958,270.201508 632.435059,271.628876 631.242615,274.542328 
	C627.543579,283.579803 622.738770,291.780151 614.983032,298.054932 
	C604.992065,306.138153 593.819092,307.874695 581.667236,304.702423 
	C579.155701,304.046783 575.701050,303.701202 575.046997,300.973114 
	C574.341858,298.031494 577.940186,296.977417 579.964478,294.905762 
z"/>
<path fill="#50C878" opacity="1.000000" stroke="none" 
	d="
M587.884644,190.874634 
	C582.847900,197.970703 579.628479,205.589783 576.508240,214.538422 
	C572.289856,208.466660 570.733887,202.696930 570.959534,196.591736 
	C571.514343,181.576050 580.279236,172.200180 593.050720,165.958176 
	C598.440002,163.324188 604.291382,161.908783 610.128967,160.521362 
	C612.650513,159.922073 614.508362,160.163651 615.049255,162.978668 
	C617.821228,177.403809 618.166626,191.469666 608.279968,203.778702 
	C602.515076,210.956116 594.783997,214.928909 585.958313,216.967590 
	C582.427551,217.783188 581.405090,216.430389 582.333801,212.946960 
	C585.803406,199.933533 592.531433,188.563675 599.839661,177.417984 
	C595.179871,181.142380 591.425659,185.671616 587.884644,190.874634 
z"/>
<path fill="#50C878" opacity="1.000000" stroke="none" 
	d="
M444.056702,165.799133 
	C460.773529,173.230591 469.364197,186.473801 467.208954,201.346542 
	C466.591949,205.604324 465.385834,209.743347 461.920135,214.110321 
	C456.385284,199.727524 450.435211,186.298294 437.941376,177.302689 
	C442.935791,184.674210 447.499207,192.281921 451.335541,200.315872 
	C453.136871,204.088226 454.592560,207.978378 455.628296,212.018356 
	C456.856995,216.811005 455.825775,217.820984 451.007141,216.688950 
	C432.838501,212.420609 420.764618,196.559616 421.498901,177.899734 
	C421.682159,173.243805 421.838684,168.592361 422.853485,164.003723 
	C423.582550,160.707031 425.181549,159.471588 428.540588,160.680527 
	C433.545258,162.481720 438.889648,163.262024 444.056702,165.799133 
z"/>
<path fill="#50C878" opacity="1.000000" stroke="none" 
	d="
M901.678223,437.936523 
	C912.288574,440.121735 912.301819,440.125793 909.262512,450.033813 
	C906.502136,459.032104 902.643188,467.364899 895.885498,474.226532 
	C886.785461,483.466492 873.328064,485.883972 861.946960,479.947021 
	C860.929626,479.416351 859.783813,478.954773 859.710327,476.913025 
	C865.439453,474.567352 871.598145,472.573090 877.119385,469.213165 
	C882.631958,465.858521 888.115662,462.498047 892.799316,457.052185 
	C890.312073,456.577209 889.207214,457.899902 887.950745,458.738525 
	C879.737976,464.220276 870.985535,468.579681 861.513977,471.430176 
	C859.639648,471.994293 857.563965,473.038025 855.866760,471.375702 
	C854.101440,469.646637 855.429810,467.532104 855.937378,465.724060 
	C860.917847,447.984222 875.651428,437.235718 894.249695,437.661713 
	C896.577576,437.715027 898.904541,437.807892 901.678223,437.936523 
z"/>
<path fill="#50C878" opacity="1.000000" stroke="none" 
	d="
M717.369263,379.496796 
	C702.873657,389.500061 682.602844,384.441681 674.064270,373.698334 
	C677.204346,369.022888 687.906128,365.367889 709.927551,361.449890 
	C706.478210,359.830017 699.904602,359.762878 691.356140,361.522461 
	C685.052612,362.819977 678.880066,364.654938 671.595764,367.898712 
	C674.297852,359.072021 678.495117,353.237305 685.004211,349.296539 
	C692.952942,344.484161 701.531067,343.696350 710.477661,346.293243 
	C718.588379,348.647552 725.740784,352.796967 732.626282,357.544983 
	C735.802856,359.735474 735.522644,361.895508 733.185730,364.524811 
	C728.422180,369.884155 723.539307,375.099823 717.369263,379.496796 
z"/>
<path fill="#50C878" opacity="1.000000" stroke="none" 
	d="
M331.000183,349.864777 
	C339.824066,346.191895 348.308563,342.947174 357.843719,344.645447 
	C367.591309,346.381561 379.139404,356.694733 380.281891,366.513916 
	C368.191101,362.187408 356.373138,357.635284 343.440796,360.056885 
	C355.686249,362.685028 367.993683,364.998352 379.735474,372.258331 
	C373.728149,377.723969 367.870544,381.894653 360.527222,383.142029 
	C344.669220,385.835724 325.548584,376.054443 318.008972,361.893188 
	C316.803467,359.628967 317.818085,358.527344 319.364288,357.327637 
	C322.919861,354.568817 326.620361,352.035889 331.000183,349.864777 
z"/>
<path fill="#50C878" opacity="1.000000" stroke="none" 
	d="
M388.268707,403.999390 
	C399.707367,405.939423 410.836060,407.622864 421.379578,413.899719 
	C413.657562,422.258392 404.857208,427.003021 393.875397,425.942413 
	C380.337585,424.634918 370.842377,416.362305 362.678314,406.245056 
	C361.095856,404.284027 362.088135,402.790924 363.634186,401.567596 
	C373.721710,393.585602 384.423737,387.124023 397.998932,387.798737 
	C407.873779,388.289581 419.664612,397.664459 422.101440,407.911316 
	C409.638428,404.981781 397.730072,400.259674 384.668182,402.918640 
	C385.710083,404.164429 386.936951,403.652679 388.268707,403.999390 
z"/>
<path fill="#50C878" opacity="1.000000" stroke="none" 
	d="
M777.038330,440.376770 
	C769.891602,438.243469 764.324036,434.463043 759.938965,428.968353 
	C756.733276,424.951355 757.186768,423.365753 762.372559,422.405487 
	C771.913757,420.638641 781.589172,420.692841 791.255798,420.971649 
	C792.002747,420.993195 792.750916,420.974457 793.504028,420.717529 
	C782.156616,416.638794 770.534973,416.998016 758.959900,419.304993 
	C758.138123,415.847290 760.185913,414.519135 761.585205,413.054596 
	C771.798462,402.365265 786.425720,400.528229 798.929688,408.378967 
	C805.159912,412.290619 810.837830,416.919830 815.940063,422.240631 
	C817.439087,423.803802 818.673828,425.343536 816.497498,427.270630 
	C805.336304,437.153931 793.079590,443.805176 777.038330,440.376770 
z"/>
<path fill="#50C878" opacity="1.000000" stroke="none" 
	d="
M731.590820,563.622986 
	C729.992004,562.801758 728.354248,562.589172 727.914062,560.856506 
	C735.348022,554.779724 748.474854,556.493347 756.232849,561.915710 
	C763.414673,566.935364 767.035095,574.439270 769.930908,582.280090 
	C771.416199,586.301514 772.069397,590.635742 773.023315,594.845703 
	C773.582336,597.312866 772.904358,599.097351 770.088989,599.562927 
	C749.267639,603.005310 728.978699,596.426331 723.857666,570.912598 
	C723.553101,569.395386 722.572693,567.502563 724.221069,566.250488 
	C725.829346,565.028870 727.401794,566.402527 728.879395,566.995300 
	C734.451172,569.230103 739.619934,572.249451 744.812927,575.236084 
	C749.887268,578.154541 754.054993,582.246399 758.809875,585.760559 
	C756.246460,578.742920 745.405518,569.918396 731.590820,563.622986 
z"/>
<path fill="#50C878" opacity="1.000000" stroke="none" 
	d="
M486.331024,411.546082 
	C492.717285,402.293365 500.994446,395.446503 509.458313,388.730255 
	C503.560791,390.001526 498.978210,393.464783 494.389404,397.004822 
	C489.790680,400.552521 486.722839,405.636719 482.211426,409.482117 
	C478.324768,401.101074 482.430084,389.154999 490.680603,382.698578 
	C499.280518,375.968811 509.255249,375.138855 519.542969,375.274017 
	C520.205322,375.282745 520.869507,375.526215 521.526611,375.500580 
	C533.013733,375.053070 530.478882,378.562958 528.823608,385.833954 
	C526.213928,397.297180 520.745911,406.931030 510.007263,412.852448 
	C503.794128,416.278381 498.385529,416.676910 493.668030,413.821472 
	C490.815887,414.559784 487.063080,418.773804 486.331024,411.546082 
z"/>
<path fill="#50C878" opacity="1.000000" stroke="none" 
	d="
M539.341553,418.068970 
	C537.227356,407.359863 539.837646,397.925812 544.620178,388.861938 
	C546.085938,386.084015 547.631042,385.520447 550.567322,387.055176 
	C561.327698,392.679382 570.583435,399.626404 574.498535,411.824158 
	C577.191223,420.213440 573.520752,432.971344 566.286682,438.505798 
	C563.405334,427.080414 563.511841,414.934357 555.885742,404.474030 
	C555.243591,407.307892 556.489807,408.966034 557.109253,410.663513 
	C559.987793,418.551392 561.338501,426.740814 561.939758,435.054352 
	C562.278931,439.743347 560.378174,440.905701 556.247925,438.725342 
	C547.873901,434.304718 542.524902,427.335022 539.341553,418.068970 
z"/>
<path fill="#50C878" opacity="1.000000" stroke="none" 
	d="
M521.919067,253.316986 
	C527.272278,265.242249 525.484619,278.657990 517.542847,284.507202 
	C516.298523,277.985565 514.874146,271.735107 512.516724,265.767395 
	C510.118042,259.695404 506.644196,254.263382 502.360992,249.253510 
	C505.567719,255.680405 508.442291,262.223511 510.274231,269.154022 
	C511.335541,273.169098 512.438843,277.199951 513.073975,281.293427 
	C513.762695,285.732086 512.232178,286.778351 508.036774,285.243500 
	C493.746643,280.015686 484.941833,263.985107 488.073608,248.469437 
	C488.924866,244.252136 490.514130,240.185699 491.724213,236.038223 
	C492.433563,233.606979 493.763245,232.955688 496.204041,233.910172 
	C506.481201,237.929169 515.647705,243.383804 521.919067,253.316986 
z"/>
<path fill="#50C878" opacity="1.000000" stroke="none" 
	d="
M476.762360,180.052979 
	C477.552490,175.177551 478.942749,170.923782 480.732147,166.788757 
	C481.518921,164.970642 482.316772,163.552933 484.796539,164.574631 
	C495.134186,168.833862 504.441132,174.402328 510.433472,184.278183 
	C516.503540,194.282074 514.962036,207.574844 506.478943,214.718765 
	C503.569031,203.076172 500.932251,191.523331 492.982910,182.294586 
	C495.654724,190.635910 499.368988,198.623291 500.693695,207.348526 
	C501.183289,210.573242 502.898834,214.830887 500.213959,216.730713 
	C497.282715,218.804810 494.079193,215.271164 491.422546,213.544296 
	C479.434692,205.752014 475.186218,194.364716 476.762360,180.052979 
z"/>
<path fill="#50C878" opacity="1.000000" stroke="none" 
	d="
M555.087830,206.974884 
	C561.817627,216.475830 565.868896,226.222565 561.406067,237.598648 
	C558.803040,244.234177 554.550659,249.451492 546.768066,253.485641 
	C548.942688,240.445343 551.659790,228.745850 547.691528,215.498215 
	C547.140137,223.364502 547.828735,229.890930 546.345459,236.229095 
	C545.476196,239.943649 544.871094,243.729980 543.816406,247.388687 
	C542.497253,251.965088 540.661926,252.231613 537.359009,248.591217 
	C527.457947,237.678436 525.881226,223.541580 533.178772,210.730148 
	C535.580505,206.513824 538.652161,202.805954 542.015686,199.317200 
	C544.370422,196.874786 546.538330,196.859772 548.733276,199.468719 
	C550.767029,201.886185 552.830811,204.278381 555.087830,206.974884 
z"/>
<path fill="#50C878" opacity="1.000000" stroke="none" 
	d="
M207.556015,331.464813 
	C217.747009,342.752563 222.419815,350.022675 223.111206,355.582794 
	C214.724808,358.580322 201.861282,353.692841 195.114777,344.938873 
	C188.550766,336.421692 186.922333,326.635773 187.627182,316.205780 
	C187.804749,313.578369 189.241745,312.703644 191.532593,312.811157 
	C201.465149,313.277374 211.037918,315.001770 219.297363,321.091217 
	C228.983551,328.232635 232.402939,339.427887 228.038498,352.560425 
	C220.849136,341.391296 213.473389,331.329620 200.899734,324.362854 
	C203.706116,327.345337 205.518173,329.271149 207.556015,331.464813 
z"/>
<path fill="#50C878" opacity="1.000000" stroke="none" 
	d="
M315.984375,313.827820 
	C322.140808,316.386292 327.868958,318.925415 333.262238,323.433105 
	C325.115356,330.945953 316.072205,332.355896 306.486938,329.880432 
	C294.415344,326.762878 287.834106,317.122101 281.661835,307.285126 
	C280.444489,305.344971 281.798553,304.235931 283.373901,303.335480 
	C292.508881,298.113831 302.095703,294.740662 312.854187,295.777374 
	C323.300018,296.783966 333.820618,307.291412 334.761475,318.540588 
	C323.725098,313.910400 313.559723,307.184784 300.382935,308.322388 
	C305.965363,310.295349 310.790894,312.000824 315.984375,313.827820 
z"/>
<path fill="#50C878" opacity="1.000000" stroke="none" 
	d="
M138.230652,508.411957 
	C124.640564,514.595398 109.236885,511.892822 99.171951,501.854065 
	C97.733223,500.419037 96.693260,499.108093 98.296074,497.181519 
	C106.196716,487.684814 114.659653,479.100494 128.042542,478.129974 
	C136.120651,477.544159 146.546371,483.630371 149.107849,491.085938 
	C138.461349,491.103210 127.815689,489.920074 117.823509,494.327393 
	C128.572296,493.694672 139.351578,492.313324 150.302734,495.737366 
	C147.970032,502.083740 143.226669,505.124176 138.230652,508.411957 
z"/>
<path fill="#50C878" opacity="1.000000" stroke="none" 
	d="
M316.683289,464.267700 
	C324.875671,467.902313 331.873260,472.518494 337.611115,479.060974 
	C343.607483,485.898163 344.295776,502.223145 336.085815,510.004211 
	C332.692108,498.512482 329.733673,487.080170 320.878326,478.546722 
	C323.559326,483.721893 325.484894,489.190887 327.603607,494.584045 
	C329.383820,499.115570 330.456818,503.825043 331.137909,508.599487 
	C331.740875,512.826172 330.321747,513.759216 326.327271,512.202454 
	C311.304901,506.347748 303.040009,490.864868 306.481720,474.999786 
	C306.975952,472.721466 307.439301,470.429688 308.082306,468.191650 
	C309.872589,461.960144 310.231171,461.810577 316.683289,464.267700 
z"/>
<path fill="#50C878" opacity="1.000000" stroke="none" 
	d="
M914.402588,521.126831 
	C904.764648,519.285400 897.359192,515.001160 892.298035,505.652008 
	C904.355408,501.878601 915.727417,502.324707 927.235413,504.320526 
	C922.172913,501.170227 916.390320,500.805817 910.753662,500.377747 
	C905.180969,499.954559 899.551025,500.285309 893.746155,500.285309 
	C892.910522,499.286041 893.719666,498.267426 894.424500,497.410645 
	C900.243347,490.338379 911.625305,483.517334 923.762512,489.203217 
	C931.976685,493.051270 938.317627,498.978882 943.957886,505.881836 
	C945.712097,508.028778 945.705933,509.649323 943.382446,511.238037 
	C934.763977,517.131104 925.877197,522.232727 914.402588,521.126831 
z"/>
<path fill="#50C878" opacity="1.000000" stroke="none" 
	d="
M111.137604,537.773804 
	C119.758408,538.067993 126.709625,540.807434 132.687836,548.774597 
	C120.956718,549.414673 110.056580,549.485535 100.464508,555.223450 
	C109.431580,553.518982 118.423050,552.347351 127.545471,552.684387 
	C129.300980,552.749146 131.577637,552.014709 132.581192,553.909363 
	C133.719421,556.058289 131.655655,557.602905 130.546738,559.125549 
	C121.646004,571.347839 108.566208,575.276917 94.421631,570.024902 
	C92.556007,569.332092 90.752106,568.451660 88.971382,567.555237 
	C79.031204,562.551636 78.918877,562.445190 85.825996,553.934143 
	C92.337303,545.911011 99.783707,539.124146 111.137604,537.773804 
z"/>
<path fill="#50C878" opacity="1.000000" stroke="none" 
	d="
M411.727173,270.422729 
	C417.056976,276.869720 421.894409,283.182281 423.571503,291.319611 
	C425.711212,301.701416 422.859436,310.687317 416.141174,318.627014 
	C415.409363,319.491913 414.618683,320.429749 412.455139,320.246277 
	C406.931122,309.691284 406.125549,297.968079 406.349457,286.143982 
	C404.205933,290.103455 404.009766,293.111023 404.120026,303.538727 
	C404.183136,309.510101 406.896851,315.017670 407.175751,321.075073 
	C400.321228,319.925079 392.908051,311.300873 391.908356,302.861389 
	C390.224884,288.649414 397.520599,278.025665 406.788879,268.463013 
	C408.946381,266.237030 410.231262,268.720795 411.727173,270.422729 
z"/>
<path fill="#50C878" opacity="1.000000" stroke="none" 
	d="
M669.831360,270.412720 
	C671.968689,260.742188 676.658813,253.119614 683.839661,246.935944 
	C686.570251,244.584579 688.498901,244.674820 690.836365,247.566803 
	C696.494873,254.567551 700.264343,262.289154 701.916809,271.209991 
	C703.401062,279.222656 694.515930,294.740631 684.892517,295.453491 
	C686.868835,285.684143 690.083374,276.201080 688.288330,264.711761 
	C686.506348,275.748047 685.655151,285.585571 680.155029,295.140961 
	C672.470947,288.192413 669.593384,280.207336 669.831360,270.412720 
z"/>
<path fill="#50C878" opacity="1.000000" stroke="none" 
	d="
M580.100220,337.310547 
	C584.065125,327.996460 584.221069,328.046875 592.617615,333.168274 
	C600.245605,337.820892 606.370483,343.640320 609.310791,352.320892 
	C611.737488,359.485260 609.876648,373.907227 602.271118,377.273224 
	C601.005676,366.161194 599.089661,355.336060 592.137939,346.267517 
	C594.553589,354.180481 596.333008,362.233978 597.784668,370.348206 
	C598.294922,373.200348 599.390442,377.027344 596.369324,378.614960 
	C593.684937,380.025604 591.174377,377.056152 589.048218,375.351532 
	C580.317749,368.352081 572.343628,355.616028 580.100220,337.310547 
z"/>
<path fill="#50C878" opacity="1.000000" stroke="none" 
	d="
M335.325928,444.820801 
	C321.674805,435.495880 319.768982,420.473541 322.867645,407.260559 
	C323.412201,404.938568 324.986816,404.517761 327.054626,404.939117 
	C335.678680,406.696564 343.661072,409.949585 350.353516,415.747559 
	C358.589539,422.882874 360.416260,437.730347 353.761932,446.048462 
	C349.262421,436.526398 346.214752,426.290161 336.961121,420.227936 
	C340.764008,427.374237 345.117859,434.220428 347.745209,441.906433 
	C348.467957,444.020813 350.440613,446.428528 348.442444,448.399170 
	C346.344940,450.467773 343.707428,448.786469 341.444824,447.888336 
	C339.443512,447.093842 337.563202,445.994476 335.325928,444.820801 
z"/>
<path fill="#50C878" opacity="1.000000" stroke="none" 
	d="
M818.273376,475.266388 
	C822.332275,470.408234 825.434631,465.396088 827.312073,459.582275 
	C820.916016,468.654114 814.035278,477.156586 803.925903,482.857452 
	C800.601807,477.110199 801.680725,471.745178 803.221313,466.494110 
	C806.961548,453.746063 819.117615,444.520416 832.658691,443.858673 
	C834.730408,443.757416 836.118042,444.292297 836.873901,446.433044 
	C840.707458,457.291260 836.320679,474.095612 827.355591,481.373016 
	C821.920105,485.785156 815.722412,487.929108 807.592712,485.908356 
	C811.514282,482.010223 814.774597,478.769379 818.273376,475.266388 
z"/>
<path fill="#50C878" opacity="1.000000" stroke="none" 
	d="
M644.239319,274.605469 
	C646.010742,272.918793 647.228760,273.945160 648.377930,274.938416 
	C653.931824,279.738831 659.339966,284.660461 662.904236,291.251343 
	C668.153687,300.958038 666.962219,311.841064 659.629639,319.960693 
	C658.323792,321.406647 657.068481,323.098083 653.952698,322.564606 
	C655.493652,312.076965 654.985901,301.697601 650.825989,291.775574 
	C651.667969,299.550507 651.600586,307.321136 651.188049,315.092499 
	C651.091736,316.906586 650.813354,318.732391 650.405884,320.503815 
	C649.688416,323.622711 648.067932,324.408386 645.504517,322.103882 
	C635.824158,313.401184 631.927917,302.096558 636.049927,289.200104 
	C637.735107,283.927521 640.648132,279.240967 644.239319,274.605469 
z"/>
<path fill="#50C878" opacity="1.000000" stroke="none" 
	d="
M734.553162,221.310059 
	C732.757874,228.953064 730.077942,235.693695 724.680969,241.053253 
	C717.793152,247.893280 707.026672,250.087112 699.046509,245.904465 
	C702.937012,237.152328 710.639893,231.895508 718.373535,225.128052 
	C708.374023,228.842255 702.595276,235.927353 696.673523,242.942337 
	C693.925964,240.744843 694.767700,238.307144 695.065125,236.181458 
	C696.871643,223.271484 706.705566,214.717239 720.599426,213.904602 
	C723.420959,213.739594 726.259521,213.774963 729.087708,213.835907 
	C734.731750,213.957504 735.547241,215.028168 734.553162,221.310059 
z"/>
<path fill="#50C878" opacity="1.000000" stroke="none" 
	d="
M636.075684,412.947021 
	C632.155029,412.434875 633.793701,409.851959 634.186951,408.130707 
	C637.144653,395.187683 649.521301,387.819000 664.310120,390.045502 
	C678.632568,392.201782 678.964172,392.852234 672.322449,405.759247 
	C666.437683,417.195496 655.262512,422.998932 642.558777,421.175720 
	C640.253113,420.844788 637.999817,420.307770 636.216492,417.693420 
	C642.763306,410.273285 651.367004,405.657288 659.463074,400.277008 
	C650.502258,402.029480 643.274414,407.085846 636.075684,412.947021 
z"/>
<path fill="#50C878" opacity="1.000000" stroke="none" 
	d="
M285.888428,570.558899 
	C291.988922,568.119263 297.535797,568.835449 304.178070,571.660278 
	C296.412292,577.716614 287.155121,580.619995 281.225433,589.365662 
	C288.423279,584.829651 294.492493,580.356750 301.300934,577.160706 
	C302.914642,576.403137 304.663757,574.941223 306.334137,576.476746 
	C307.863831,577.882751 307.054718,579.893066 306.648346,581.670471 
	C303.555939,595.197327 293.489349,603.290100 279.481018,603.507812 
	C266.142059,603.715088 265.887482,603.475098 269.737823,590.738098 
	C272.362915,582.054077 276.530945,574.441040 285.888428,570.558899 
z"/>
<path fill="#50C878" opacity="1.000000" stroke="none" 
	d="
M538.714355,175.975616 
	C538.749146,171.234756 538.519775,167.000320 536.507446,163.011765 
	C536.585022,172.420959 536.566895,181.771683 532.942749,190.704819 
	C525.257202,187.609726 519.593933,176.292282 520.577637,166.647415 
	C521.450256,158.092804 526.203308,151.488922 531.511047,145.184113 
	C532.969727,143.451447 534.457825,143.965805 535.759399,145.350861 
	C542.201660,152.206253 547.919495,159.487564 550.031738,168.987946 
	C551.399902,175.141800 546.294983,188.525848 538.028870,190.624863 
	C536.796021,185.798340 539.360474,181.160034 538.714355,175.975616 
z"/>
<path fill="#50C878" opacity="1.000000" stroke="none" 
	d="
M289.050415,452.371582 
	C287.030853,452.796326 285.417023,453.203430 283.778625,453.442230 
	C281.878479,453.719208 279.560425,454.838623 278.322632,452.624451 
	C277.214691,450.642578 278.885925,448.825287 279.849457,447.151123 
	C283.678040,440.498688 289.036682,435.015137 293.691803,428.948029 
	C285.004913,433.529022 279.796448,441.432770 274.620911,450.081940 
	C270.934113,446.025085 271.452240,441.836029 272.161346,437.898041 
	C274.075684,427.266968 282.708649,420.025238 295.542938,417.881592 
	C296.525574,417.717468 297.530975,417.689972 298.513824,417.526825 
	C308.497375,415.869781 309.530548,416.705475 308.200470,426.552582 
	C306.595703,438.433777 302.091827,448.368652 289.050415,452.371582 
z"/>
<path fill="#50C878" opacity="1.000000" stroke="none" 
	d="
M771.239380,457.033020 
	C774.819824,465.504700 776.553528,473.880432 774.007690,482.618622 
	C771.010498,492.906189 761.376831,500.149811 751.637512,498.885529 
	C757.225098,490.818054 763.127075,483.211914 764.920776,473.505127 
	C761.343811,479.934631 757.899780,486.455505 752.727051,491.764709 
	C751.078064,493.457275 749.777039,496.622009 746.937866,495.588837 
	C744.393311,494.662872 744.336304,491.454559 744.063965,489.050049 
	C742.927856,479.017944 746.199585,470.526428 754.206604,464.378174 
	C759.117126,460.607605 764.217346,456.678253 771.239380,457.033020 
z"/>
<path fill="#50C878" opacity="1.000000" stroke="none" 
	d="
M891.020508,648.492371 
	C893.473450,645.969421 895.578796,647.824463 897.527222,648.693909 
	C904.759277,651.920776 911.707642,655.682739 917.988647,660.610779 
	C911.578552,652.941589 903.519104,647.471191 894.397583,643.012817 
	C900.918091,639.330078 907.353027,638.292480 913.812439,641.771057 
	C925.066284,647.831604 928.523499,658.728027 930.842651,670.223389 
	C931.181885,671.904907 930.197876,672.744019 928.743225,673.027649 
	C910.297241,676.624817 892.435181,668.305237 891.020508,648.492371 
z"/>
<path fill="#50C878" opacity="1.000000" stroke="none" 
	d="
M109.168991,662.375244 
	C111.401375,655.244568 114.173737,648.941528 119.991463,644.394165 
	C126.943489,638.960144 136.534760,638.138367 143.971024,643.232605 
	C135.586487,647.360779 127.210976,650.968750 122.212334,658.936646 
	C128.286179,654.636902 134.509705,650.628235 141.366653,647.726257 
	C142.970840,647.047363 144.784271,645.676208 146.433655,647.317566 
	C147.845215,648.722168 146.693634,650.489075 146.347244,652.046021 
	C141.866119,672.187805 125.005608,675.611816 109.850388,673.163696 
	C107.795105,672.831604 107.070091,671.542664 107.509048,669.557007 
	C108.010925,667.286804 108.530602,665.020569 109.168991,662.375244 
z"/>
<path fill="#50C878" opacity="1.000000" stroke="none" 
	d="
M738.590454,297.781189 
	C745.480286,303.016754 751.832092,308.325378 755.379883,316.214661 
	C759.190430,324.688263 757.181580,335.182220 750.376526,341.434265 
	C749.669556,342.083801 748.983215,342.922089 747.171326,342.286255 
	C746.472961,333.198029 747.745728,323.407349 742.560486,314.793945 
	C743.778625,324.242676 745.528320,333.674622 742.458252,343.101257 
	C735.290955,341.306641 728.417480,331.980255 727.599548,322.912506 
	C726.757446,313.577728 730.598145,305.757294 736.089233,298.593842 
	C736.503113,298.053894 737.526855,297.981415 738.590454,297.781189 
z"/>
<path fill="#50C878" opacity="1.000000" stroke="none" 
	d="
M672.852905,448.426483 
	C671.325623,449.891296 673.056030,450.704010 673.665833,451.579895 
	C677.113220,456.531464 679.607117,461.963776 681.943298,467.475983 
	C682.569214,468.952637 683.699768,470.689758 682.483765,472.180237 
	C681.160645,473.801941 679.057739,473.372162 677.343811,472.838043 
	C667.192322,469.674408 660.470032,463.034546 657.945557,452.629120 
	C656.729065,447.614594 656.445801,442.442841 657.404480,437.279724 
	C657.863525,434.808014 658.968384,433.252838 661.767761,433.773743 
	C669.193542,435.155396 676.304688,437.336945 682.345276,442.118408 
	C689.760681,447.988068 692.716736,457.249939 689.996887,466.223999 
	C689.540955,467.728485 689.425659,469.588867 686.757568,470.361847 
	C683.823425,462.150055 680.114075,454.235596 672.852905,448.426483 
z"/>
<path fill="#50C878" opacity="1.000000" stroke="none" 
	d="
M323.166107,241.780182 
	C320.420074,233.052109 315.906952,225.885147 309.541748,219.843750 
	C315.333405,228.949982 319.712494,238.531403 321.362335,249.422791 
	C310.089386,249.705460 298.457153,237.875137 297.564575,225.872528 
	C297.167816,220.537323 297.656036,215.239792 299.431915,210.115128 
	C300.024384,208.405396 300.610870,207.250595 302.882111,207.452652 
	C314.816132,208.514450 327.804626,220.277634 329.617523,231.853165 
	C330.455017,237.200592 329.017334,242.595139 325.628174,246.701035 
	C323.451355,245.901093 324.050507,243.665939 323.166107,241.780182 
z"/>
<path fill="#50C878" opacity="1.000000" stroke="none" 
	d="
M237.682877,662.881592 
	C244.715866,649.465454 256.596436,644.335388 267.767487,649.620178 
	C268.309937,649.876831 268.755432,650.338440 269.908112,651.198608 
	C265.067963,654.015259 260.681427,656.514038 256.349335,659.103943 
	C251.876755,661.777710 248.201569,665.359802 245.036942,669.576965 
	C253.537170,663.861938 261.801819,657.730103 271.853577,654.738464 
	C273.871918,662.592590 268.235596,673.220520 260.121277,678.013977 
	C252.423401,682.561279 244.039841,681.477539 235.765778,681.161194 
	C233.330215,681.068054 233.164749,679.138123 233.455856,677.077271 
	C234.137436,672.252258 235.717331,667.710327 237.682877,662.881592 
z"/>
<path fill="#50C878" opacity="1.000000" stroke="none" 
	d="
M205.021927,621.368042 
	C206.287827,625.223328 203.660049,627.241028 201.524185,629.074402 
	C194.122635,635.427917 185.647400,637.981140 176.018051,635.091248 
	C171.047440,633.599548 166.390396,631.403503 162.269974,628.189880 
	C160.575089,626.867920 159.204575,625.397705 161.137329,623.246460 
	C167.499817,616.164551 173.807983,609.047729 183.882568,607.149597 
	C191.768280,605.663818 201.256104,609.953003 204.931961,617.516907 
	C194.803680,617.213318 184.911667,616.637146 175.787552,621.272034 
	C185.443451,619.589844 195.080917,619.233337 205.021927,621.368042 
z"/>
<path fill="#50C878" opacity="1.000000" stroke="none" 
	d="
M798.157471,659.007202 
	C801.503784,664.686707 803.471436,670.480530 804.806396,676.542114 
	C805.373474,679.116882 804.979675,680.659302 802.119202,681.281616 
	C787.777100,684.401611 774.296570,678.653809 767.389648,666.372131 
	C767.226379,666.081848 767.007751,665.814636 766.890747,665.507751 
	C765.717651,662.431641 763.281799,658.728027 765.614685,656.145630 
	C768.198730,653.285156 771.411011,656.714050 774.023743,657.986694 
	C780.687073,661.232422 787.240601,664.742554 792.916321,669.661621 
	C786.831238,661.227722 778.305603,655.971680 768.953552,651.630188 
	C777.077942,643.818726 791.537659,648.799927 798.157471,659.007202 
z"/>
<path fill="#50C878" opacity="1.000000" stroke="none" 
	d="
M840.362793,617.301697 
	C837.803772,617.025146 835.701355,618.306458 833.555603,617.440735 
	C835.660583,611.023132 844.262878,606.033081 851.960754,606.811401 
	C863.202271,607.947998 870.178101,615.770020 877.354431,623.221680 
	C878.712830,624.632202 877.878784,625.895264 876.819458,627.153198 
	C867.863342,637.788391 846.703308,638.956299 836.821716,629.271851 
	C834.941833,627.429443 833.044983,625.480469 832.937866,622.012024 
	C842.600159,618.519287 852.394043,620.189453 862.207520,621.252502 
	C855.539429,617.434937 848.243591,616.996887 840.362793,617.301697 
z"/>
<path fill="#50C878" opacity="1.000000" stroke="none" 
	d="
M528.485962,473.822571 
	C517.011597,467.308533 511.935516,457.203217 513.471741,444.451508 
	C514.605835,435.037567 514.624756,434.972504 523.721008,437.620941 
	C529.654114,439.348450 535.283081,441.661682 539.915283,446.041718 
	C546.022583,451.816559 549.216980,465.371979 543.203735,472.895477 
	C538.856567,463.450623 534.647644,454.254333 525.277039,447.368561 
	C527.083801,450.556061 528.453857,452.673584 529.520203,454.934387 
	C530.707397,457.451355 532.455322,460.161530 528.095825,461.754669 
	C526.563904,462.314514 526.888489,463.996277 527.542786,465.237366 
	C528.224365,466.530182 529.297852,466.272675 530.554138,465.935669 
	C533.917114,465.033508 539.463379,470.436371 539.008362,474.033691 
	C538.777405,475.859070 537.395630,476.132385 536.062073,475.870972 
	C533.622437,475.392792 531.238037,474.632599 528.485962,473.822571 
z"/>
<path fill="#50C878" opacity="1.000000" stroke="none" 
	d="
M399.710327,192.037537 
	C402.634735,198.980942 405.599670,205.656708 408.345520,212.421371 
	C409.124207,214.339722 410.284271,216.869064 408.299103,218.471390 
	C406.415680,219.991577 404.128418,218.423187 402.218292,217.611664 
	C391.958649,213.252975 385.722931,202.327713 386.360382,190.084885 
	C387.115692,175.577896 389.180817,174.450836 402.122711,181.284790 
	C411.334106,186.148804 418.127930,192.754044 418.162201,203.964172 
	C418.175385,208.275269 417.018280,212.437668 414.221558,215.980927 
	C412.112671,215.430222 412.359192,213.623779 411.953247,212.351044 
	C409.760773,205.476807 406.792938,199.017288 402.126068,193.450150 
	C401.513733,192.719650 401.269196,191.160843 399.710327,192.037537 
M397.496033,208.115082 
	C399.100250,208.844955 400.982574,209.504990 401.590607,207.224472 
	C402.281219,204.634277 401.009827,202.324020 399.154419,200.507950 
	C398.044220,199.421295 396.661896,199.553406 395.592407,200.671585 
	C394.045044,202.289352 393.648621,204.159470 395.020966,206.085861 
	C395.488190,206.741684 396.237610,207.196442 397.496033,208.115082 
z"/>
<path fill="#50C878" opacity="1.000000" stroke="none" 
	d="
M535.434204,335.959137 
	C547.036621,332.511780 556.714539,336.480957 565.969055,342.297913 
	C567.275208,343.118866 568.060059,344.242737 567.444153,346.087250 
	C565.299683,352.509491 551.809692,362.711548 545.036743,362.863525 
	C544.048523,362.885651 543.022156,362.873322 542.266907,361.819641 
	C542.250000,359.685699 544.586914,359.869781 545.586426,358.703979 
	C546.453979,357.692078 547.644531,356.852753 547.174866,355.312836 
	C546.727112,353.844879 545.333191,352.920715 544.093994,353.323730 
	C539.110535,354.944366 532.318909,351.224731 529.155823,358.318054 
	C528.703857,359.331604 527.660461,359.585632 526.585815,359.149292 
	C525.459106,358.691833 524.473145,357.985352 524.341797,356.705658 
	C524.172729,355.057495 525.458252,354.352905 526.708435,353.897461 
	C534.477600,351.067383 541.911743,347.210846 550.241760,345.921478 
	C540.620667,344.968994 531.828491,348.553802 521.827942,351.961884 
	C524.424744,344.010498 528.654175,339.166565 535.434204,335.959137 
z"/>
</svg>